<svg xmlns="http://www.w3.org/2000/svg" xmlns:xlink="http://www.w3.org/1999/xlink" width="117.68" height="39.861" viewBox="0 0 117.68 39.861">
  <defs>
    <linearGradient id="linear-gradient" x1="0.478" y1="0.073" x2="1" y2="1" gradientUnits="objectBoundingBox">
      <stop offset="0" stop-color="#e345e6"/>
      <stop offset="0.454" stop-color="#8f9eed"/>
      <stop offset="1" stop-color="#45cbe6"/>
    </linearGradient>
    <linearGradient id="linear-gradient-2" x1="0.125" y1="0.5" x2="1" y2="0.5" gradientUnits="objectBoundingBox">
      <stop offset="0" stop-color="#e345e6"/>
      <stop offset="0.64" stop-color="#8f9eed"/>
      <stop offset="1" stop-color="#45cbe6"/>
    </linearGradient>
  </defs>
  <g id="logo-light" transform="translate(-11.061 -17.295)">
    <g id="グループ_1021" data-name="グループ 1021" transform="translate(0.721 -0.064)">
      <path id="パス_818" data-name="パス 818" d="M79.68-6.72V-21.28H59.76V-6.72ZM52.84-23a4.961,4.961,0,0,1,.4-2,5.061,5.061,0,0,1,1.06-1.58,4.846,4.846,0,0,1,1.56-1.04A4.737,4.737,0,0,1,57.72-28H81.44a5.25,5.25,0,0,1,2.04.4,5.191,5.191,0,0,1,1.64,1.06,4.952,4.952,0,0,1,1.08,1.56,4.534,4.534,0,0,1,.4,1.86V-5a4.961,4.961,0,0,1-.4,2,5.06,5.06,0,0,1-1.06,1.58A4.846,4.846,0,0,1,83.58-.38,4.737,4.737,0,0,1,81.72,0H58a5.25,5.25,0,0,1-2.04-.4,5.191,5.191,0,0,1-1.64-1.06,4.952,4.952,0,0,1-1.08-1.56,4.534,4.534,0,0,1-.4-1.86Zm33.64,0a4.961,4.961,0,0,1,.4-2,5.061,5.061,0,0,1,1.06-1.58,4.846,4.846,0,0,1,1.56-1.04A4.737,4.737,0,0,1,91.36-28h26.28v6.72H93.4V-6.72h24.24V0h-26A5.25,5.25,0,0,1,89.6-.4a5.191,5.191,0,0,1-1.64-1.06,4.952,4.952,0,0,1-1.08-1.56,4.534,4.534,0,0,1-.4-1.86Z" transform="translate(10.38 46.564)" fill="#010440"/>
      <path id="パス_799" data-name="パス 799" d="M2-23a4.961,4.961,0,0,1,.4-2,5.061,5.061,0,0,1,1.06-1.58,4.846,4.846,0,0,1,1.56-1.04A4.737,4.737,0,0,1,6.88-28H30.12v6.72H8.92v6.44h18v6.72h-18V0H2ZM28.6-6.72h9.08V-21.28H28.6V-28H53.76v6.72H44.6V-6.72h9.16V0H28.6Zm51.08,0V-21.28H59.76V-6.72ZM52.84-23a4.961,4.961,0,0,1,.4-2,5.061,5.061,0,0,1,1.06-1.58,4.846,4.846,0,0,1,1.56-1.04A4.737,4.737,0,0,1,57.72-28H81.44a5.25,5.25,0,0,1,2.04.4,5.191,5.191,0,0,1,1.64,1.06,4.952,4.952,0,0,1,1.08,1.56,4.534,4.534,0,0,1,.4,1.86V-5a4.961,4.961,0,0,1-.4,2,5.06,5.06,0,0,1-1.06,1.58A4.846,4.846,0,0,1,83.58-.38,4.737,4.737,0,0,1,81.72,0H58a5.25,5.25,0,0,1-2.04-.4,5.191,5.191,0,0,1-1.64-1.06,4.952,4.952,0,0,1-1.08-1.56,4.534,4.534,0,0,1-.4-1.86Zm33.64,0a4.961,4.961,0,0,1,.4-2,5.061,5.061,0,0,1,1.06-1.58,4.846,4.846,0,0,1,1.56-1.04A4.737,4.737,0,0,1,91.36-28h26.28v6.72H93.4V-6.72h24.24V0h-26A5.25,5.25,0,0,1,89.6-.4a5.191,5.191,0,0,1-1.64-1.06,4.952,4.952,0,0,1-1.08-1.56,4.534,4.534,0,0,1-.4-1.86Z" transform="translate(10.18 46.359)" fill="url(#linear-gradient)"/>
      <g id="グループ_1017" data-name="グループ 1017" transform="translate(-5836.66 -548.641)">
        <path id="パス_798" data-name="パス 798" d="M2,15.357a5.645,5.645,0,0,1,.4-2.143,5.46,5.46,0,0,1,1.06-1.693,4.838,4.838,0,0,1,1.56-1.114A4.466,4.466,0,0,1,6.88,10H30.12v7.2L8.92,18.67V23.1h18v8.8h-18V40H2ZM30.12,31.285h8.96V18.67H30.12L30,10H55.16v8.67H46V31.285h9.16V40H30Z" transform="translate(5847 556)" fill="#45cbe6"/>
        <path id="パス_797" data-name="パス 797" d="M2,15a4.882,4.882,0,0,1,.408-2,5.056,5.056,0,0,1,1.08-1.58A5.053,5.053,0,0,1,6.972,10H30.649v6.72H9.05v6.44H27.389v6.72H9.05V38H2ZM30.23,31.28h8.95V16.72H30.527V10H56.16v6.72H46.828V31.28H56.16V38H30.23Z" transform="translate(5845 558)" fill="#a571d9"/>
        <path id="パス_796" data-name="パス 796" d="M2,15a4.882,4.882,0,0,1,.408-2,5.056,5.056,0,0,1,1.08-1.58A5.053,5.053,0,0,1,6.972,10H30.649v6.72H9.05v6.44H27.389v6.72H9.05V38H2ZM30.23,31.28h8.95V16.72H30.527V10H56.16v6.72H46.828V31.28H56.16V38H30.23Z" transform="translate(5845 556)" fill="#e345e6"/>
        <path id="パス_817" data-name="パス 817" d="M2-23a4.961,4.961,0,0,1,.4-2,5.061,5.061,0,0,1,1.06-1.58,4.846,4.846,0,0,1,1.56-1.04A4.737,4.737,0,0,1,6.88-28H30.12v6.72H8.92v6.44h18v6.72h-18V0H2ZM30-6.72h9.08V-21.28H30V-28H55.16v6.72H46V-6.72h9.16V0H30Z" transform="translate(5846 595)" fill="#fff"/>
      </g>
    </g>
    <g id="グループ_1031" data-name="グループ 1031" transform="translate(0.809 2)">
      <path id="パス_1758" data-name="パス 1758" d="M.842-3.785H5.425V-5.042H2.239c.247-.261.425-.276,1.136-1,.788-.788,1.18-1.2,1.407-1.479a3.526,3.526,0,0,0,.488-.827,2.041,2.041,0,0,0,.145-.778A1.789,1.789,0,0,0,4.763-10.6a2.815,2.815,0,0,0-1.784-.532,5.044,5.044,0,0,0-.967.1A7.117,7.117,0,0,0,1-10.746v1.329a5.325,5.325,0,0,1,1-.445,2.753,2.753,0,0,1,.856-.15,1.217,1.217,0,0,1,.831.261.965.965,0,0,1,.29.735,1.475,1.475,0,0,1-.16.653,3.357,3.357,0,0,1-.522.73c-.295.334-.595.653-1.673,1.808l-.653.7a.416.416,0,0,0-.121.3Zm7.991.14a1.974,1.974,0,0,0,1.789-.933,5.3,5.3,0,0,0,.595-2.809,5.322,5.322,0,0,0-.595-2.813,1.982,1.982,0,0,0-1.793-.933A1.974,1.974,0,0,0,7.04-10.2a5.322,5.322,0,0,0-.595,2.813,5.3,5.3,0,0,0,.595,2.8A1.986,1.986,0,0,0,8.834-3.645Zm0-1.209c-.329,0-.57-.2-.72-.6a6.008,6.008,0,0,1-.227-1.929A6.022,6.022,0,0,1,8.108-9.32c.15-.4.392-.6.72-.6s.575.2.725.6a6.022,6.022,0,0,1,.227,1.934,6.008,6.008,0,0,1-.227,1.929C9.4-5.056,9.162-4.853,8.829-4.853Zm0-1.155c.092,0,.164-.189.208-.575a7.422,7.422,0,0,0,.044-.793c0-.174-.029-.551-.053-.822-.039-.334-.111-.575-.208-.575s-.155.189-.2.566a7.39,7.39,0,0,0-.048.8c0,.179.034.58.058.827C8.674-6.289,8.727-6.009,8.834-6.009Zm3.138,2.224h4.583V-5.042H13.368c.247-.261.425-.276,1.136-1,.788-.788,1.18-1.2,1.407-1.479a3.526,3.526,0,0,0,.488-.827,2.041,2.041,0,0,0,.145-.778,1.789,1.789,0,0,0-.653-1.479,2.815,2.815,0,0,0-1.784-.532,5.044,5.044,0,0,0-.967.1,7.118,7.118,0,0,0-1.015.29v1.329a5.325,5.325,0,0,1,1-.445,2.753,2.753,0,0,1,.856-.15,1.217,1.217,0,0,1,.831.261.965.965,0,0,1,.29.735,1.475,1.475,0,0,1-.16.653,3.357,3.357,0,0,1-.522.73c-.295.334-.595.653-1.673,1.808l-.653.7a.416.416,0,0,0-.121.3Zm8.363,0H21.7V-5.341H22.5V-6.565H21.7V-11H20.209L17.473-6.724v1.383h2.862Zm-1.822-2.78,1.822-2.852v2.852Zm12.41,2.92a2.905,2.905,0,0,0,1.9-.541,1.971,1.971,0,0,0,.648-1.6,2.135,2.135,0,0,0-.411-1.358,2.848,2.848,0,0,0-1.281-.841l-.614-.232a2.367,2.367,0,0,1-.836-.435.659.659,0,0,1-.2-.5.7.7,0,0,1,.276-.59,1.265,1.265,0,0,1,.788-.208,2.857,2.857,0,0,1,.943.169,3.7,3.7,0,0,1,.933.493v-1.392a5.309,5.309,0,0,0-.986-.338,4.407,4.407,0,0,0-1-.111,2.508,2.508,0,0,0-1.721.561,1.949,1.949,0,0,0-.628,1.542,1.79,1.79,0,0,0,.382,1.213,3.658,3.658,0,0,0,1.46.865l.7.266a1.317,1.317,0,0,1,.561.382.877.877,0,0,1,.193.57.817.817,0,0,1-.29.667,1.249,1.249,0,0,1-.827.242,3.042,3.042,0,0,1-1.044-.2,4.6,4.6,0,0,1-1.107-.6v1.474a4.572,4.572,0,0,0,1.044.382A4.522,4.522,0,0,0,30.922-3.645Zm3.553-.14H35.9v-2.7h.532a3.46,3.46,0,0,0,2.151-.532,2.1,2.1,0,0,0,.653-1.726,2.1,2.1,0,0,0-.653-1.726A3.46,3.46,0,0,0,36.434-11H34.476Zm1.426-3.9V-9.8h.585a1.551,1.551,0,0,1,.986.237,1.023,1.023,0,0,1,.28.822,1.023,1.023,0,0,1-.28.822,1.551,1.551,0,0,1-.986.237Zm4.148,3.9h4.5V-5.042h-3.07v-1.89h2.78V-8.189h-2.78V-9.745h3.07V-11h-4.5Zm8.421.14a3.405,3.405,0,0,0,.793-.087,3.137,3.137,0,0,0,.711-.261V-5.578a2.6,2.6,0,0,1-.711.493,1.716,1.716,0,0,1-.72.16,1.306,1.306,0,0,1-1.175-.624,3.418,3.418,0,0,1-.4-1.837,3.479,3.479,0,0,1,.4-1.847,1.312,1.312,0,0,1,1.175-.619,1.693,1.693,0,0,1,.715.155,2.5,2.5,0,0,1,.715.5v-1.586a2.8,2.8,0,0,0-.706-.261,3.477,3.477,0,0,0-.8-.087,2.681,2.681,0,0,0-2.219.962,4.381,4.381,0,0,0-.769,2.784,4.366,4.366,0,0,0,.769,2.78A2.681,2.681,0,0,0,48.471-3.645Zm2.727-.14h4.3V-5.042H54.06v-4.7H55.5V-11H51.2v1.257h1.436v4.7H51.2Zm4.893,0h1.426l.435-1.784h1.909l.445,1.784h1.426L59.784-11H58.039Zm2.146-2.959L58.909-9.7l.677,2.954Zm4.346,2.959H67.06V-5.042H64.01V-11H62.584Zm10.931,0h1.32l.769-3.79.822,3.79h1.329L78.585-11H77.328l-.406,5.3L76.2-9.131H75.013L74.389-5.7,73.872-11H72.625Zm5.487,0h4.5V-5.042h-3.07v-1.89h2.78V-8.189h-2.78V-9.745H83.5V-11H79Zm5.357,0h2.325a3.467,3.467,0,0,0,2.045-.469,1.758,1.758,0,0,0,.628-1.508,1.955,1.955,0,0,0-.416-1.329,1.808,1.808,0,0,0-1.247-.556A1.57,1.57,0,0,0,88.743-8.1,1.577,1.577,0,0,0,89.1-9.189a1.615,1.615,0,0,0-.6-1.368,2.981,2.981,0,0,0-1.813-.454H84.358ZM85.736-8.2V-9.876h.947a1.116,1.116,0,0,1,.769.2.794.794,0,0,1,.232.643.756.756,0,0,1-.227.633,1.127,1.127,0,0,1-.773.2Zm0,3.273V-7.062h.947a1.4,1.4,0,0,1,.943.256,1.083,1.083,0,0,1,.285.841,1.027,1.027,0,0,1-.271.807,1.508,1.508,0,0,1-.957.232Zm9.949,1.141h1.426v-2.7h.532a3.46,3.46,0,0,0,2.151-.532,2.1,2.1,0,0,0,.653-1.726,2.1,2.1,0,0,0-.653-1.726A3.46,3.46,0,0,0,97.643-11H95.685Zm1.426-3.9V-9.8H97.7a1.551,1.551,0,0,1,.986.237,1.023,1.023,0,0,1,.28.822,1.023,1.023,0,0,1-.28.822,1.551,1.551,0,0,1-.986.237Zm3.5,3.9h1.426l.435-1.784h1.91l.445,1.784h1.426L104.3-11h-1.745Zm2.146-2.959.672-2.954.677,2.954Zm6.739,3.1a3.057,3.057,0,0,0,1.078-.184,2.9,2.9,0,0,0,.9-.532V-7.667h-2.224v1.2h.977V-5.09a.62.62,0,0,1-.266.121,1.381,1.381,0,0,1-.382.044,1.238,1.238,0,0,1-1.131-.624,3.611,3.611,0,0,1-.387-1.847,3.445,3.445,0,0,1,.4-1.847,1.356,1.356,0,0,1,1.218-.609,1.85,1.85,0,0,1,.851.193,2.057,2.057,0,0,1,.686.585v-1.581a3.119,3.119,0,0,0-.788-.358,3.024,3.024,0,0,0-.88-.121,2.655,2.655,0,0,0-2.2.962,4.321,4.321,0,0,0-.773,2.775,4.413,4.413,0,0,0,.764,2.78A2.586,2.586,0,0,0,109.492-3.645Zm2.9-.14h4.5V-5.042h-3.07v-1.89h2.78V-8.189h-2.78V-9.745h3.07V-11h-4.5Z" transform="translate(10.328 58.801)" fill="#010440"/>
      <path id="パス_1759" data-name="パス 1759" d="M.842-3.785H5.425V-5.042H2.239c.247-.261.425-.276,1.136-1,.788-.788,1.18-1.2,1.407-1.479a3.526,3.526,0,0,0,.488-.827,2.041,2.041,0,0,0,.145-.778A1.789,1.789,0,0,0,4.763-10.6a2.815,2.815,0,0,0-1.784-.532,5.044,5.044,0,0,0-.967.1A7.117,7.117,0,0,0,1-10.746v1.329a5.325,5.325,0,0,1,1-.445,2.753,2.753,0,0,1,.856-.15,1.217,1.217,0,0,1,.831.261.965.965,0,0,1,.29.735,1.475,1.475,0,0,1-.16.653,3.357,3.357,0,0,1-.522.73c-.295.334-.595.653-1.673,1.808l-.653.7a.416.416,0,0,0-.121.3Zm7.991.14a1.974,1.974,0,0,0,1.789-.933,5.3,5.3,0,0,0,.595-2.809,5.322,5.322,0,0,0-.595-2.813,1.982,1.982,0,0,0-1.793-.933A1.974,1.974,0,0,0,7.04-10.2a5.322,5.322,0,0,0-.595,2.813,5.3,5.3,0,0,0,.595,2.8A1.986,1.986,0,0,0,8.834-3.645Zm0-1.209c-.329,0-.57-.2-.72-.6a6.008,6.008,0,0,1-.227-1.929A6.022,6.022,0,0,1,8.108-9.32c.15-.4.392-.6.72-.6s.575.2.725.6a6.022,6.022,0,0,1,.227,1.934,6.008,6.008,0,0,1-.227,1.929C9.4-5.056,9.162-4.853,8.829-4.853Zm0-1.155c.092,0,.164-.189.208-.575a7.422,7.422,0,0,0,.044-.793c0-.174-.029-.551-.053-.822-.039-.334-.111-.575-.208-.575s-.155.189-.2.566a7.39,7.39,0,0,0-.048.8c0,.179.034.58.058.827C8.674-6.289,8.727-6.009,8.834-6.009Zm3.138,2.224h4.583V-5.042H13.368c.247-.261.425-.276,1.136-1,.788-.788,1.18-1.2,1.407-1.479a3.526,3.526,0,0,0,.488-.827,2.041,2.041,0,0,0,.145-.778,1.789,1.789,0,0,0-.653-1.479,2.815,2.815,0,0,0-1.784-.532,5.044,5.044,0,0,0-.967.1,7.118,7.118,0,0,0-1.015.29v1.329a5.325,5.325,0,0,1,1-.445,2.753,2.753,0,0,1,.856-.15,1.217,1.217,0,0,1,.831.261.965.965,0,0,1,.29.735,1.475,1.475,0,0,1-.16.653,3.357,3.357,0,0,1-.522.73c-.295.334-.595.653-1.673,1.808l-.653.7a.416.416,0,0,0-.121.3Zm8.363,0H21.7V-5.341H22.5V-6.565H21.7V-11H20.209L17.473-6.724v1.383h2.862Zm-1.822-2.78,1.822-2.852v2.852Zm12.41,2.92a2.905,2.905,0,0,0,1.9-.541,1.971,1.971,0,0,0,.648-1.6,2.135,2.135,0,0,0-.411-1.358,2.848,2.848,0,0,0-1.281-.841l-.614-.232a2.367,2.367,0,0,1-.836-.435.659.659,0,0,1-.2-.5.7.7,0,0,1,.276-.59,1.265,1.265,0,0,1,.788-.208,2.857,2.857,0,0,1,.943.169,3.7,3.7,0,0,1,.933.493v-1.392a5.309,5.309,0,0,0-.986-.338,4.407,4.407,0,0,0-1-.111,2.508,2.508,0,0,0-1.721.561,1.949,1.949,0,0,0-.628,1.542,1.79,1.79,0,0,0,.382,1.213,3.658,3.658,0,0,0,1.46.865l.7.266a1.317,1.317,0,0,1,.561.382.877.877,0,0,1,.193.57.817.817,0,0,1-.29.667,1.249,1.249,0,0,1-.827.242,3.042,3.042,0,0,1-1.044-.2,4.6,4.6,0,0,1-1.107-.6v1.474a4.572,4.572,0,0,0,1.044.382A4.522,4.522,0,0,0,30.922-3.645Zm3.553-.14H35.9v-2.7h.532a3.46,3.46,0,0,0,2.151-.532,2.1,2.1,0,0,0,.653-1.726,2.1,2.1,0,0,0-.653-1.726A3.46,3.46,0,0,0,36.434-11H34.476Zm1.426-3.9V-9.8h.585a1.551,1.551,0,0,1,.986.237,1.023,1.023,0,0,1,.28.822,1.023,1.023,0,0,1-.28.822,1.551,1.551,0,0,1-.986.237Zm4.148,3.9h4.5V-5.042h-3.07v-1.89h2.78V-8.189h-2.78V-9.745h3.07V-11h-4.5Zm8.421.14a3.405,3.405,0,0,0,.793-.087,3.137,3.137,0,0,0,.711-.261V-5.578a2.6,2.6,0,0,1-.711.493,1.716,1.716,0,0,1-.72.16,1.306,1.306,0,0,1-1.175-.624,3.418,3.418,0,0,1-.4-1.837,3.479,3.479,0,0,1,.4-1.847,1.312,1.312,0,0,1,1.175-.619,1.693,1.693,0,0,1,.715.155,2.5,2.5,0,0,1,.715.5v-1.586a2.8,2.8,0,0,0-.706-.261,3.477,3.477,0,0,0-.8-.087,2.681,2.681,0,0,0-2.219.962,4.381,4.381,0,0,0-.769,2.784,4.366,4.366,0,0,0,.769,2.78A2.681,2.681,0,0,0,48.471-3.645Zm2.727-.14h4.3V-5.042H54.06v-4.7H55.5V-11H51.2v1.257h1.436v4.7H51.2Zm4.893,0h1.426l.435-1.784h1.909l.445,1.784h1.426L59.784-11H58.039Zm2.146-2.959L58.909-9.7l.677,2.954Zm4.346,2.959H67.06V-5.042H64.01V-11H62.584Zm10.931,0h1.32l.769-3.79.822,3.79h1.329L78.585-11H77.328l-.406,5.3L76.2-9.131H75.013L74.389-5.7,73.872-11H72.625Zm5.487,0h4.5V-5.042h-3.07v-1.89h2.78V-8.189h-2.78V-9.745H83.5V-11H79Zm5.357,0h2.325a3.467,3.467,0,0,0,2.045-.469,1.758,1.758,0,0,0,.628-1.508,1.955,1.955,0,0,0-.416-1.329,1.808,1.808,0,0,0-1.247-.556A1.57,1.57,0,0,0,88.743-8.1,1.577,1.577,0,0,0,89.1-9.189a1.615,1.615,0,0,0-.6-1.368,2.981,2.981,0,0,0-1.813-.454H84.358ZM85.736-8.2V-9.876h.947a1.116,1.116,0,0,1,.769.2.794.794,0,0,1,.232.643.756.756,0,0,1-.227.633,1.127,1.127,0,0,1-.773.2Zm0,3.273V-7.062h.947a1.4,1.4,0,0,1,.943.256,1.083,1.083,0,0,1,.285.841,1.027,1.027,0,0,1-.271.807,1.508,1.508,0,0,1-.957.232Zm9.949,1.141h1.426v-2.7h.532a3.46,3.46,0,0,0,2.151-.532,2.1,2.1,0,0,0,.653-1.726,2.1,2.1,0,0,0-.653-1.726A3.46,3.46,0,0,0,97.643-11H95.685Zm1.426-3.9V-9.8H97.7a1.551,1.551,0,0,1,.986.237,1.023,1.023,0,0,1,.28.822,1.023,1.023,0,0,1-.28.822,1.551,1.551,0,0,1-.986.237Zm3.5,3.9h1.426l.435-1.784h1.91l.445,1.784h1.426L104.3-11h-1.745Zm2.146-2.959.672-2.954.677,2.954Zm6.739,3.1a3.057,3.057,0,0,0,1.078-.184,2.9,2.9,0,0,0,.9-.532V-7.667h-2.224v1.2h.977V-5.09a.62.62,0,0,1-.266.121,1.381,1.381,0,0,1-.382.044,1.238,1.238,0,0,1-1.131-.624,3.611,3.611,0,0,1-.387-1.847,3.445,3.445,0,0,1,.4-1.847,1.356,1.356,0,0,1,1.218-.609,1.85,1.85,0,0,1,.851.193,2.057,2.057,0,0,1,.686.585v-1.581a3.119,3.119,0,0,0-.788-.358,3.024,3.024,0,0,0-.88-.121,2.655,2.655,0,0,0-2.2.962,4.321,4.321,0,0,0-.773,2.775,4.413,4.413,0,0,0,.764,2.78A2.586,2.586,0,0,0,109.492-3.645Zm2.9-.14h4.5V-5.042h-3.07v-1.89h2.78V-8.189h-2.78V-9.745h3.07V-11h-4.5Z" transform="translate(10.078 58.801)" fill="url(#linear-gradient-2)"/>
    </g>
  </g>
</svg>
